<?xml version="1.0" encoding="UTF-8" standalone="no"?><!-- Generator: Gravit.io --><svg xmlns="http://www.w3.org/2000/svg" xmlns:xlink="http://www.w3.org/1999/xlink" style="isolation:isolate" viewBox="0 0 512 512" width="512pt" height="512pt"><defs><clipPath id="_clipPath_GVzhhNzbydmdWlc7eBdok59nWH6ZpuW4"><rect width="512" height="512"/></clipPath></defs><g clip-path="url(#_clipPath_GVzhhNzbydmdWlc7eBdok59nWH6ZpuW4)"><g><rect x="0" y="0" width="512" height="512" transform="matrix(1,0,0,1,0,0)" fill="rgb(30,43,52)"/><circle vector-effect="non-scaling-stroke" cx="256" cy="256.0000000000001" r="197" fill="rgb(61,61,65)"/><circle vector-effect="non-scaling-stroke" cx="256" cy="256.0000000000001" r="197" fill="rgb(255,117,65)"/><circle vector-effect="non-scaling-stroke" cx="256" cy="256.0000000000001" r="197" fill="rgb(81,137,81)"/><path d=" M 291.51 317.214 C 291.51 307.813 288.824 300.23 283.65 294.621 C 278.337 288.992 269.39 283.818 256.81 279.117 C 245.685 274.972 234.793 270.225 224.183 264.897 C 215.641 260.618 207.721 255.197 200.641 248.781 C 194.124 242.764 188.926 235.461 185.375 227.333 C 181.741 219.157 179.904 209.361 179.904 198.025 C 179.904 178.512 186.145 162.475 198.647 149.954 C 211.148 137.472 227.797 130.145 248.475 128.051 L 248.475 90.941 L 276.263 90.941 L 276.263 128.584 C 296.704 131.448 312.741 140.02 324.314 154.2 C 335.888 168.4 341.674 186.767 341.674 209.302 L 291.51 209.302 C 291.51 195.398 288.587 184.99 282.879 178.117 C 277.172 171.264 269.548 167.788 259.891 167.788 C 250.411 167.788 243.084 170.493 237.83 175.885 C 232.656 181.277 230.049 188.683 230.049 198.183 C 230.049 206.971 232.597 214.081 237.672 219.315 C 242.768 224.647 252.267 230.118 266.072 235.668 C 279.897 241.237 291.293 246.471 300.16 251.408 C 308.483 255.813 316.104 261.431 322.774 268.077 C 328.877 274.239 333.577 281.349 336.796 289.209 C 340.055 297.168 341.674 306.332 341.674 316.918 C 341.674 336.589 335.493 352.547 323.228 364.811 C 310.983 377.076 294.078 384.344 272.629 386.576 L 272.629 421.059 L 244.999 421.059 L 244.999 386.734 C 221.24 384.166 202.893 375.693 189.838 361.414 C 176.803 347.155 170.326 328.176 170.326 304.417 L 220.49 304.417 C 220.49 318.143 223.788 328.709 230.365 336.115 C 236.823 343.442 246.244 347.155 258.508 347.155 C 268.699 347.155 276.797 344.449 282.662 339.058 C 288.587 333.646 291.53 326.398 291.53 317.214 L 291.51 317.214 Z " fill="rgb(81,137,81)"/><path d=" M 291.51 317.214 C 291.51 307.813 288.824 300.23 283.65 294.621 C 278.337 288.992 269.39 283.818 256.81 279.117 C 245.685 274.972 234.793 270.225 224.183 264.897 C 215.641 260.618 207.721 255.197 200.641 248.781 C 194.124 242.764 188.926 235.461 185.375 227.333 C 181.741 219.157 179.904 209.361 179.904 198.025 C 179.904 178.512 186.145 162.475 198.647 149.954 C 211.148 137.472 227.797 130.145 248.475 128.051 L 248.475 90.941 L 276.263 90.941 L 276.263 128.584 C 296.704 131.448 312.741 140.02 324.314 154.2 C 335.888 168.4 341.674 186.767 341.674 209.302 L 291.51 209.302 C 291.51 195.398 288.587 184.99 282.879 178.117 C 277.172 171.264 269.548 167.788 259.891 167.788 C 250.411 167.788 243.084 170.493 237.83 175.885 C 232.656 181.277 230.049 188.683 230.049 198.183 C 230.049 206.971 232.597 214.081 237.672 219.315 C 242.768 224.647 252.267 230.118 266.072 235.668 C 279.897 241.237 291.293 246.471 300.16 251.408 C 308.483 255.813 316.104 261.431 322.774 268.077 C 328.877 274.239 333.577 281.349 336.796 289.209 C 340.055 297.168 341.674 306.332 341.674 316.918 C 341.674 336.589 335.493 352.547 323.228 364.811 C 310.983 377.076 294.078 384.344 272.629 386.576 L 272.629 421.059 L 244.999 421.059 L 244.999 386.734 C 221.24 384.166 202.893 375.693 189.838 361.414 C 176.803 347.155 170.326 328.176 170.326 304.417 L 220.49 304.417 C 220.49 318.143 223.788 328.709 230.365 336.115 C 236.823 343.442 246.244 347.155 258.508 347.155 C 268.699 347.155 276.797 344.449 282.662 339.058 C 288.587 333.646 291.53 326.398 291.53 317.214 L 291.51 317.214 Z " fill="rgb(255,117,65)"/><path d=" M 291.51 317.214 C 291.51 307.813 288.824 300.23 283.65 294.621 C 278.337 288.992 269.39 283.818 256.81 279.117 C 245.685 274.972 234.793 270.225 224.183 264.897 C 215.641 260.618 207.721 255.197 200.641 248.781 C 194.124 242.764 188.926 235.461 185.375 227.333 C 181.741 219.157 179.904 209.361 179.904 198.025 C 179.904 178.512 186.145 162.475 198.647 149.954 C 211.148 137.472 227.797 130.145 248.475 128.051 L 248.475 90.941 L 276.263 90.941 L 276.263 128.584 C 296.704 131.448 312.741 140.02 324.314 154.2 C 335.888 168.4 341.674 186.767 341.674 209.302 L 291.51 209.302 C 291.51 195.398 288.587 184.99 282.879 178.117 C 277.172 171.264 269.548 167.788 259.891 167.788 C 250.411 167.788 243.084 170.493 237.83 175.885 C 232.656 181.277 230.049 188.683 230.049 198.183 C 230.049 206.971 232.597 214.081 237.672 219.315 C 242.768 224.647 252.267 230.118 266.072 235.668 C 279.897 241.237 291.293 246.471 300.16 251.408 C 308.483 255.813 316.104 261.431 322.774 268.077 C 328.877 274.239 333.577 281.349 336.796 289.209 C 340.055 297.168 341.674 306.332 341.674 316.918 C 341.674 336.589 335.493 352.547 323.228 364.811 C 310.983 377.076 294.078 384.344 272.629 386.576 L 272.629 421.059 L 244.999 421.059 L 244.999 386.734 C 221.24 384.166 202.893 375.693 189.838 361.414 C 176.803 347.155 170.326 328.176 170.326 304.417 L 220.49 304.417 C 220.49 318.143 223.788 328.709 230.365 336.115 C 236.823 343.442 246.244 347.155 258.508 347.155 C 268.699 347.155 276.797 344.449 282.662 339.058 C 288.587 333.646 291.53 326.398 291.53 317.214 L 291.51 317.214 Z " fill="rgb(195,198,186)"/><path d=" M 291.51 317.214 C 291.51 307.813 288.824 300.23 283.65 294.621 C 278.337 288.992 269.39 283.818 256.81 279.117 C 245.685 274.972 234.793 270.225 224.183 264.897 C 215.641 260.618 207.721 255.197 200.641 248.781 C 194.124 242.764 188.926 235.461 185.375 227.333 C 181.741 219.157 179.904 209.361 179.904 198.025 C 179.904 178.512 186.145 162.475 198.647 149.954 C 211.148 137.472 227.797 130.145 248.475 128.051 L 248.475 90.941 L 276.263 90.941 L 276.263 128.584 C 296.704 131.448 312.741 140.02 324.314 154.2 C 335.888 168.4 341.674 186.767 341.674 209.302 L 291.51 209.302 C 291.51 195.398 288.587 184.99 282.879 178.117 C 277.172 171.264 269.548 167.788 259.891 167.788 C 250.411 167.788 243.084 170.493 237.83 175.885 C 232.656 181.277 230.049 188.683 230.049 198.183 C 230.049 206.971 232.597 214.081 237.672 219.315 C 242.768 224.647 252.267 230.118 266.072 235.668 C 279.897 241.237 291.293 246.471 300.16 251.408 C 308.483 255.813 316.104 261.431 322.774 268.077 C 328.877 274.239 333.577 281.349 336.796 289.209 C 340.055 297.168 341.674 306.332 341.674 316.918 C 341.674 336.589 335.493 352.547 323.228 364.811 C 310.983 377.076 294.078 384.344 272.629 386.576 L 272.629 421.059 L 244.999 421.059 L 244.999 386.734 C 221.24 384.166 202.893 375.693 189.838 361.414 C 176.803 347.155 170.326 328.176 170.326 304.417 L 220.49 304.417 C 220.49 318.143 223.788 328.709 230.365 336.115 C 236.823 343.442 246.244 347.155 258.508 347.155 C 268.699 347.155 276.797 344.449 282.662 339.058 C 288.587 333.646 291.53 326.398 291.53 317.214 L 291.51 317.214 Z " fill="rgb(30,43,52)"/></g></g></svg>